<mxfile host="app.diagrams.net" modified="2024-05-03T12:53:08.214Z" agent="Mozilla/5.0 (Windows NT 10.0; Win64; x64) AppleWebKit/537.36 (KHTML, like Gecko) Chrome/124.0.0.0 Safari/537.36" etag="szlDRFOibyd6v1M7KcjT" version="24.3.1" type="device">
  <diagram name="페이지-1" id="ZYbA3vh0bnos2M1s2pzV">
    <mxGraphModel dx="1434" dy="780" grid="1" gridSize="10" guides="1" tooltips="1" connect="1" arrows="1" fold="1" page="1" pageScale="1" pageWidth="827" pageHeight="1169" math="0" shadow="0">
      <root>
        <mxCell id="0" />
        <mxCell id="1" parent="0" />
        <mxCell id="z42e_u1oupX9HW_-YG6A-1" value="«interface»&lt;br&gt;&lt;b&gt;UserLevelUpgradePolicy&lt;/b&gt;&lt;div&gt;&lt;b&gt;&lt;br&gt;&lt;/b&gt;&lt;/div&gt;" style="html=1;whiteSpace=wrap;" vertex="1" parent="1">
          <mxGeometry x="340" y="210" width="201" height="50" as="geometry" />
        </mxCell>
        <mxCell id="z42e_u1oupX9HW_-YG6A-2" value="&lt;span style=&quot;color: rgb(68, 85, 136); font-family: &amp;quot;SF Mono&amp;quot;, Menlo, Consolas, Monaco, monospace; font-size: 14px; text-align: start; white-space: pre; background-color: rgb(248, 248, 248);&quot;&gt;UserService&lt;/span&gt;" style="swimlane;fontStyle=1;align=center;verticalAlign=top;childLayout=stackLayout;horizontal=1;startSize=26;horizontalStack=0;resizeParent=1;resizeParentMax=0;resizeLast=0;collapsible=1;marginBottom=0;whiteSpace=wrap;html=1;" vertex="1" parent="1">
          <mxGeometry x="224" y="375" width="190" height="60" as="geometry" />
        </mxCell>
        <mxCell id="z42e_u1oupX9HW_-YG6A-6" value="&lt;span style=&quot;color: rgb(68, 85, 136); font-family: &amp;quot;SF Mono&amp;quot;, Menlo, Consolas, Monaco, monospace; font-size: 14px; text-align: start; white-space: pre; background-color: rgb(248, 248, 248);&quot;&gt;EventUserLevelUpgradePolicy&lt;/span&gt;" style="swimlane;fontStyle=1;align=center;verticalAlign=top;childLayout=stackLayout;horizontal=1;startSize=26;horizontalStack=0;resizeParent=1;resizeParentMax=0;resizeLast=0;collapsible=1;marginBottom=0;whiteSpace=wrap;html=1;" vertex="1" parent="1">
          <mxGeometry x="500" y="370" width="240" height="70" as="geometry" />
        </mxCell>
        <mxCell id="z42e_u1oupX9HW_-YG6A-10" value="" style="endArrow=open;endSize=12;dashed=1;html=1;rounded=0;entryX=0.5;entryY=1;entryDx=0;entryDy=0;exitX=0.5;exitY=0;exitDx=0;exitDy=0;" edge="1" parent="1" source="z42e_u1oupX9HW_-YG6A-2" target="z42e_u1oupX9HW_-YG6A-1">
          <mxGeometry width="160" relative="1" as="geometry">
            <mxPoint x="330" y="400" as="sourcePoint" />
            <mxPoint x="490" y="400" as="targetPoint" />
            <Array as="points">
              <mxPoint x="320" y="340" />
              <mxPoint x="440" y="340" />
            </Array>
          </mxGeometry>
        </mxCell>
        <mxCell id="z42e_u1oupX9HW_-YG6A-11" value="" style="endArrow=open;endSize=12;dashed=1;html=1;rounded=0;exitX=0.5;exitY=0;exitDx=0;exitDy=0;entryX=0.5;entryY=1;entryDx=0;entryDy=0;" edge="1" parent="1" source="z42e_u1oupX9HW_-YG6A-6" target="z42e_u1oupX9HW_-YG6A-1">
          <mxGeometry x="1" y="-71" width="160" relative="1" as="geometry">
            <mxPoint x="329" y="385" as="sourcePoint" />
            <mxPoint x="460" y="270" as="targetPoint" />
            <Array as="points">
              <mxPoint x="620" y="340" />
              <mxPoint x="440" y="340" />
            </Array>
            <mxPoint x="7" y="-7" as="offset" />
          </mxGeometry>
        </mxCell>
      </root>
    </mxGraphModel>
  </diagram>
</mxfile>
